# xmcd
#
# Track frame offsets:
#	150
#	11347
#	26073
#	49751
#	62584
#	71999
#	85236
#	100551
#	113077
#	125269
#
# Disc length: 1846 seconds
#
# Revision: 1
# Processed by: cddbd v1.5.2PL0 Copyright (c) Steve Scherf et al.
# Submitted via: EasyCDDAExtractor 7.0.3.1
#
DISCID=7a07340a
DTITLE=Jeanne Pruett - Satin Sheets
DYEAR=2006
DGENRE=Country
TTITLE0=I Ought to Feel Guilty
TTITLE1=Temporarily Yours
TTITLE2=Today I Started Loving You Again
TTITLE3=Wild Side Of Life
TTITLE4=Love Is A Faded Rose
TTITLE5=Back To Back
TTITLE6=It's Too Late (To Love Me Now)
TTITLE7=Swing Low Sweet Chariot
TTITLE8=Star Studded Nights
TTITLE9=Satin Sheets
EXTD=
EXTT0=
EXTT1=
EXTT2=
EXTT3=
EXTT4=
EXTT5=
EXTT6=
EXTT7=
EXTT8=
EXTT9=
PLAYORDER=
